<svg width="16" height="19" viewBox="0 0 16 19" fill="none" xmlns="http://www.w3.org/2000/svg">
<path d="M2.66797 0.75C3.19414 0.749437 3.63028 0.931111 4.01562 1.32324C4.40146 1.71597 4.58431 2.16623 4.58301 2.71289V16.2861C4.58291 16.8361 4.39923 17.2864 4.01562 17.6777C3.63284 18.068 3.1969 18.2506 2.66797 18.25H2.66699C2.13838 18.25 1.70248 18.0676 1.31934 17.6777C0.983714 17.3361 0.799865 16.9485 0.758789 16.4873L0.75 16.2852V2.71387C0.750094 2.16416 0.934238 1.71461 1.31836 1.32422C1.70301 0.933361 2.14007 0.750652 2.66797 0.75ZM13.334 0.75C13.8604 0.74935 14.2971 0.930903 14.6826 1.32324C15.0685 1.71597 15.2513 2.16623 15.25 2.71289V16.2861C15.2499 16.8363 15.0655 17.2863 14.6816 17.6777C14.2988 18.0681 13.8631 18.2507 13.334 18.25H13.333C12.8045 18.2499 12.3685 18.0677 11.9854 17.6777C11.6498 17.3362 11.4669 16.9484 11.4258 16.4873L11.417 16.2852V2.71387C11.4171 2.16409 11.6011 1.71465 11.9854 1.32422C12.3699 0.933427 12.8062 0.750713 13.334 0.75Z" stroke="white" stroke-width="1.5"/>
</svg>
